<svg xmlns="http://www.w3.org/2000/svg" viewBox="0 0 200 200">
  <g stroke="#D67858" stroke-width="4" stroke-linecap="round" stroke-linejoin="round">
    <circle cx="58" cy="70" r="18" fill="#FFB89A"/><circle cx="142" cy="70" r="18" fill="#FFB89A"/>
    <circle cx="58" cy="72" r="8" fill="#FF9AA8" stroke="none"/><circle cx="142" cy="72" r="8" fill="#FF9AA8" stroke="none"/>
    <ellipse cx="100" cy="120" rx="72" ry="62" fill="#FFB89A"/>
  </g>
  <circle cx="66" cy="134" r="10" fill="#FF9AA8" opacity="0.6"/><circle cx="134" cy="134" r="10" fill="#FF9AA8" opacity="0.6"/>
  <path d="M68 100 l16 16 M84 100 l-16 16 M116 100 l16 16 M132 100 l-16 16" fill="none" stroke="#2B2024" stroke-width="5" stroke-linecap="round"/>
  <path d="M88 144 Q100 134 112 144" fill="none" stroke="#2B2024" stroke-width="4" stroke-linecap="round"/>
  <path d="M40 40 l8 -14 8 14 M48 26 v-10" fill="none" stroke="#E5484D" stroke-width="4" stroke-linecap="round"/>
  <circle cx="48" cy="46" r="3" fill="#E5484D"/>
  <path d="M158 40 q10 -6 12 6 q-10 6 -12 -6z" fill="#7EC8FF" stroke="#4FA8E8" stroke-width="2"/>
</svg>
