<svg xmlns="http://www.w3.org/2000/svg" viewBox="0 0 200 200">
  <g stroke="#D67858" stroke-width="4" stroke-linecap="round" stroke-linejoin="round">
    <circle cx="60" cy="66" r="18" fill="#FFB89A"/><circle cx="140" cy="66" r="18" fill="#FFB89A"/>
    <circle cx="60" cy="68" r="8" fill="#FF9AA8" stroke="none"/><circle cx="140" cy="68" r="8" fill="#FF9AA8" stroke="none"/>
    <ellipse cx="100" cy="118" rx="72" ry="64" fill="#FFB89A"/>
  </g>
  <ellipse cx="64" cy="130" rx="15" ry="10" fill="#FF7F95" opacity="0.85"/><ellipse cx="136" cy="130" rx="15" ry="10" fill="#FF7F95" opacity="0.85"/>
  <path d="M56 136 l6 -4 M62 140 l6 -4 M132 136 l6 -4 M138 140 l6 -4" fill="none" stroke="#E5607A" stroke-width="2" stroke-linecap="round" opacity="0.8"/>
  <path d="M68 112 q10 -10 20 0 M112 112 q10 -10 20 0" fill="none" stroke="#2B2024" stroke-width="5" stroke-linecap="round"/>
  <path d="M92 142 q8 4 16 0" fill="none" stroke="#2B2024" stroke-width="4" stroke-linecap="round"/>
  <g stroke="#D67858" stroke-width="4" stroke-linejoin="round">
    <ellipse cx="52" cy="160" rx="16" ry="12" fill="#FFB89A"/><ellipse cx="148" cy="160" rx="16" ry="12" fill="#FFB89A"/>
  </g>
  <path d="M164 44 c-4 -8 -14 -6 -14 2 c0 6 8 10 14 16 c6 -6 14 -10 14 -16 c0 -8 -10 -10 -14 -2z" fill="#FF6F87"/>
</svg>
